<svg width="146" height="38" viewBox="0 0 146 38" fill="none" xmlns="http://www.w3.org/2000/svg">
<rect width="146" height="38" rx="8" fill="white"/>
<path d="M34.688 19.416C34.688 18.328 34.9333 17.352 35.424 16.488C35.9147 15.6133 36.5813 14.9307 37.424 14.44C38.2773 13.9493 39.2213 13.704 40.256 13.704C41.472 13.704 42.5333 13.9973 43.44 14.584C44.3467 15.1707 45.008 16.0027 45.424 17.08H43.68C43.3707 16.408 42.9227 15.8907 42.336 15.528C41.76 15.1653 41.0667 14.984 40.256 14.984C39.4773 14.984 38.7787 15.1653 38.16 15.528C37.5413 15.8907 37.056 16.408 36.704 17.08C36.352 17.7413 36.176 18.52 36.176 19.416C36.176 20.3013 36.352 21.08 36.704 21.752C37.056 22.4133 37.5413 22.9253 38.16 23.288C38.7787 23.6507 39.4773 23.832 40.256 23.832C41.0667 23.832 41.76 23.656 42.336 23.304C42.9227 22.9413 43.3707 22.424 43.68 21.752H45.424C45.008 22.8187 44.3467 23.6453 43.44 24.232C42.5333 24.808 41.472 25.096 40.256 25.096C39.2213 25.096 38.2773 24.856 37.424 24.376C36.5813 23.8853 35.9147 23.208 35.424 22.344C34.9333 21.48 34.688 20.504 34.688 19.416ZM47.0474 20.584C47.0474 19.688 47.2287 18.904 47.5914 18.232C47.954 17.5493 48.45 17.0213 49.0794 16.648C49.7194 16.2747 50.4287 16.088 51.2074 16.088C51.9754 16.088 52.642 16.2533 53.2074 16.584C53.7727 16.9147 54.194 17.3307 54.4714 17.832V16.232H55.9434V25H54.4714V23.368C54.1834 23.88 53.7514 24.3067 53.1754 24.648C52.61 24.9787 51.9487 25.144 51.1914 25.144C50.4127 25.144 49.7087 24.952 49.0794 24.568C48.45 24.184 47.954 23.6453 47.5914 22.952C47.2287 22.2587 47.0474 21.4693 47.0474 20.584ZM54.4714 20.6C54.4714 19.9387 54.338 19.3627 54.0714 18.872C53.8047 18.3813 53.442 18.008 52.9834 17.752C52.5354 17.4853 52.0394 17.352 51.4954 17.352C50.9514 17.352 50.4554 17.48 50.0074 17.736C49.5594 17.992 49.202 18.3653 48.9354 18.856C48.6687 19.3467 48.5354 19.9227 48.5354 20.584C48.5354 21.256 48.6687 21.8427 48.9354 22.344C49.202 22.8347 49.5594 23.2133 50.0074 23.48C50.4554 23.736 50.9514 23.864 51.4954 23.864C52.0394 23.864 52.5354 23.736 52.9834 23.48C53.442 23.2133 53.8047 22.8347 54.0714 22.344C54.338 21.8427 54.4714 21.2613 54.4714 20.6ZM59.8599 17.848C60.1479 17.3467 60.5745 16.9307 61.1399 16.6C61.7159 16.2587 62.3825 16.088 63.1399 16.088C63.9185 16.088 64.6225 16.2747 65.2519 16.648C65.8919 17.0213 66.3932 17.5493 66.7559 18.232C67.1185 18.904 67.2999 19.688 67.2999 20.584C67.2999 21.4693 67.1185 22.2587 66.7559 22.952C66.3932 23.6453 65.8919 24.184 65.2519 24.568C64.6225 24.952 63.9185 25.144 63.1399 25.144C62.3932 25.144 61.7319 24.9787 61.1559 24.648C60.5905 24.3067 60.1585 23.8853 59.8599 23.384V29.16H58.4039V16.232H59.8599V17.848ZM65.8119 20.584C65.8119 19.9227 65.6785 19.3467 65.4119 18.856C65.1452 18.3653 64.7825 17.992 64.3239 17.736C63.8759 17.48 63.3799 17.352 62.8359 17.352C62.3025 17.352 61.8065 17.4853 61.3479 17.752C60.8999 18.008 60.5372 18.3867 60.2599 18.888C59.9932 19.3787 59.8599 19.9493 59.8599 20.6C59.8599 21.2613 59.9932 21.8427 60.2599 22.344C60.5372 22.8347 60.8999 23.2133 61.3479 23.48C61.8065 23.736 62.3025 23.864 62.8359 23.864C63.3799 23.864 63.8759 23.736 64.3239 23.48C64.7825 23.2133 65.1452 22.8347 65.4119 22.344C65.6785 21.8427 65.8119 21.256 65.8119 20.584ZM70.9924 17.432V22.6C70.9924 23.0267 71.083 23.3307 71.2644 23.512C71.4457 23.6827 71.7604 23.768 72.2084 23.768H73.2804V25H71.9684C71.1577 25 70.5497 24.8133 70.1444 24.44C69.739 24.0667 69.5364 23.4533 69.5364 22.6V17.432H68.4004V16.232H69.5364V14.024H70.9924V16.232H73.2804V17.432H70.9924ZM82.8205 16.232V25H81.3645V23.704C81.0872 24.152 80.6978 24.504 80.1965 24.76C79.7058 25.0053 79.1618 25.128 78.5645 25.128C77.8818 25.128 77.2685 24.9893 76.7245 24.712C76.1805 24.424 75.7485 23.9973 75.4285 23.432C75.1192 22.8667 74.9645 22.1787 74.9645 21.368V16.232H76.4045V21.176C76.4045 22.04 76.6232 22.7067 77.0605 23.176C77.4978 23.6347 78.0952 23.864 78.8525 23.864C79.6312 23.864 80.2445 23.624 80.6925 23.144C81.1405 22.664 81.3645 21.9653 81.3645 21.048V16.232H82.8205ZM86.7349 17.656C86.9909 17.1547 87.3535 16.7653 87.8229 16.488C88.3029 16.2107 88.8842 16.072 89.5669 16.072V17.576H89.1829C87.5509 17.576 86.7349 18.4613 86.7349 20.232V25H85.2789V16.232H86.7349V17.656ZM90.7036 20.584C90.7036 19.688 90.885 18.904 91.2476 18.232C91.6103 17.5493 92.1063 17.0213 92.7356 16.648C93.3756 16.2747 94.085 16.088 94.8636 16.088C95.6316 16.088 96.2983 16.2533 96.8636 16.584C97.429 16.9147 97.8503 17.3307 98.1276 17.832V16.232H99.5996V25H98.1276V23.368C97.8396 23.88 97.4076 24.3067 96.8316 24.648C96.2663 24.9787 95.605 25.144 94.8476 25.144C94.069 25.144 93.365 24.952 92.7356 24.568C92.1063 24.184 91.6103 23.6453 91.2476 22.952C90.885 22.2587 90.7036 21.4693 90.7036 20.584ZM98.1276 20.6C98.1276 19.9387 97.9943 19.3627 97.7276 18.872C97.461 18.3813 97.0983 18.008 96.6396 17.752C96.1916 17.4853 95.6956 17.352 95.1516 17.352C94.6076 17.352 94.1116 17.48 93.6636 17.736C93.2156 17.992 92.8583 18.3653 92.5916 18.856C92.325 19.3467 92.1916 19.9227 92.1916 20.584C92.1916 21.256 92.325 21.8427 92.5916 22.344C92.8583 22.8347 93.2156 23.2133 93.6636 23.48C94.1116 23.736 94.6076 23.864 95.1516 23.864C95.6956 23.864 96.1916 23.736 96.6396 23.48C97.0983 23.2133 97.461 22.8347 97.7276 22.344C97.9943 21.8427 98.1276 21.2613 98.1276 20.6ZM103.516 17.656C103.772 17.1547 104.135 16.7653 104.604 16.488C105.084 16.2107 105.665 16.072 106.348 16.072V17.576H105.964C104.332 17.576 103.516 18.4613 103.516 20.232V25H102.06V16.232H103.516V17.656ZM109.917 13.848L109.741 21.848H108.525L108.349 13.848H109.917ZM109.197 25.096C108.92 25.096 108.685 25 108.493 24.808C108.301 24.616 108.205 24.3813 108.205 24.104C108.205 23.8267 108.301 23.592 108.493 23.4C108.685 23.208 108.92 23.112 109.197 23.112C109.464 23.112 109.688 23.208 109.869 23.4C110.061 23.592 110.157 23.8267 110.157 24.104C110.157 24.3813 110.061 24.616 109.869 24.808C109.688 25 109.464 25.096 109.197 25.096Z" fill="#0F0F0F"/>
</svg>
